<?xml version="1.0" encoding="UTF-8" standalone="no"?>
<svg
   version="1.0"
   width="1254.000000pt"
   height="1254.000000pt"
   viewBox="0 0 1254.000000 1254.000000"
   preserveAspectRatio="xMidYMid meet"
   id="svg51"
   sodipodi:docname="logo-black.svg"
   inkscape:version="1.4 (e7c3feb100, 2024-10-09)"
   xmlns:inkscape="http://www.inkscape.org/namespaces/inkscape"
   xmlns:sodipodi="http://sodipodi.sourceforge.net/DTD/sodipodi-0.dtd"
   xmlns="http://www.w3.org/2000/svg"
   xmlns:svg="http://www.w3.org/2000/svg">
  <defs
     id="defs51" />
  <sodipodi:namedview
     id="namedview51"
     pagecolor="#ffffff"
     bordercolor="#000000"
     borderopacity="0.25"
     inkscape:showpageshadow="2"
     inkscape:pageopacity="0.0"
     inkscape:pagecheckerboard="0"
     inkscape:deskcolor="#d1d1d1"
     inkscape:document-units="pt"
     inkscape:zoom="0.36004785"
     inkscape:cx="834.6113"
     inkscape:cy="836"
     inkscape:window-width="1554"
     inkscape:window-height="820"
     inkscape:window-x="0"
     inkscape:window-y="0"
     inkscape:window-maximized="1"
     inkscape:current-layer="svg51" />
  <metadata
     id="metadata1">
Created by potrace 1.16, written by Peter Selinger 2001-2019
</metadata>
  <g
     transform="translate(0.000000,1254.000000) scale(0.100000,-0.100000)"
     fill="#000000"
     stroke="none"
     id="g51">
    <path
       d="M5440 12269 c-809 -22 -1426 -117 -1438 -222 -3 -25 2 -30 51 -53 223 -102 1052 -184 1852 -184 981 0 1915 112 1915 229 0 114 -614 206 -1547 231 -388 10 -435 10 -833 -1z"
       id="path1" />
    <path
       d="M3895 11916 c-22 -22 -25 -32 -19 -63 8 -48 5 -46 98 -77 277 -94 679 -160 1271 -208 215 -17 1098 -17 1340 0 602 43 1081 124 1307 221 41 17 46 23 52 62 10 62 -23 98 -63 69 -94 -69 -565 -163 -1021 -205 -622 -56 -1524 -45 -2120 26 -382 45 -720 122 -794 180 l-26 20 -25 -25z"
       id="path2" />
    <path
       d="M3910 11693 c0 -4 18 -124 41 -266 33 -201 45 -260 58 -267 24 -12 332 -100 353 -100 14 0 9 20 -36 128 -138 332 -180 428 -190 438 -9 9 -80 33 -208 70 -10 3 -18 2 -18 -3z"
       id="path3" />
    <path
       d="M7774 11655 c-72 -24 -184 -55 -250 -69 -65 -15 -129 -29 -142 -32 -13 -2 -22 -10 -20 -16 8 -22 293 -366 299 -360 6 7 78 166 156 347 32 71 63 126 49 85 -3 -8 -14 -53 -26 -100 -11 -47 -44 -153 -72 -237 -29 -84 -50 -155 -47 -158 10 -9 99 29 104 45 2 8 23 125 45 260 23 135 43 253 46 263 7 22 13 23 -142 -28z"
       id="path4" />
    <path
       d="M4316 11468 c118 -285 146 -348 154 -343 10 6 314 364 318 374 1 4 -37 13 -85 19 -49 7 -166 28 -261 47 -95 19 -175 35 -177 35 -2 0 21 -60 51 -132z"
       id="path5" />
    <path
       d="M7100 11509 c-53 -8 -273 -31 -428 -45 -56 -5 -72 -10 -68 -20 3 -8 74 -106 158 -219 137 -183 154 -203 166 -188 15 20 242 468 242 477 0 3 -3 5 -7 5 -5 -1 -33 -5 -63 -10z"
       id="path6" />
    <path
       d="M4990 11475 c0 -14 255 -475 262 -475 7 0 107 131 267 350 l62 85 -38 7 c-21 3 -126 11 -233 17 -107 7 -223 15 -257 18 -35 3 -63 2 -63 -2z"
       id="path7" />
    <path
       d="M7219 11369 c-28 -57 -87 -173 -131 -256 -75 -144 -78 -153 -56 -153 62 0 568 104 568 116 0 4 -282 344 -321 388 -4 5 -31 -38 -60 -95z"
       id="path8" />
    <path
       d="M6071 11443 c-256 -3 -282 -5 -277 -19 9 -23 290 -453 296 -453 6 -1 27 31 192 287 65 100 118 185 118 187 0 3 -10 4 -22 3 -13 -2 -151 -4 -307 -5z"
       id="path9" />
    <path
       d="M4704 11228 c-106 -125 -167 -206 -160 -210 32 -18 591 -97 603 -84 3 2 -10 33 -29 68 -162 301 -233 428 -238 428 -3 0 -82 -91 -176 -202z"
       id="path10" />
    <path
       d="M5653 11343 c-76 -96 -314 -426 -310 -429 6 -6 394 -24 530 -24 l129 0 -23 38 c-13 20 -85 131 -160 245 l-136 208 -30 -38z"
       id="path11" />
    <path
       d="M6419 11268 c-176 -273 -229 -357 -229 -364 0 -14 622 17 639 32 7 7 -316 444 -329 444 -4 0 -41 -51 -81 -112z"
       id="path12" />
    <path
       d="M4013 11034 c3 -10 9 -43 12 -71 l7 -53 97 -30 c494 -152 1026 -215 1826 -215 619 0 951 27 1385 111 154 29 417 102 434 120 12 12 33 121 24 129 -2 2 -43 -10 -93 -27 -608 -200 -1685 -270 -2635 -173 -372 39 -812 132 -1049 223 -9 3 -12 -1 -8 -14z"
       id="path13" />
    <path
       d="M4066 10711 c17 -122 8 -111 119 -142 98 -28 363 -89 384 -89 13 0 15 136 3 144 -5 3 -69 19 -143 35 -74 17 -187 45 -252 64 l-118 34 7 -46z"
       id="path14" />
    <path
       d="M7703 10720 c-19 -8 -237 -62 -340 -85 -21 -5 -23 -11 -23 -80 0 -53 4 -75 13 -75 6 0 84 19 172 41 88 23 170 43 181 46 18 4 23 17 33 73 16 100 16 101 -36 80z"
       id="path15" />
    <path
       d="M4698 10243 c-2 -237 1 -367 7 -369 6 -2 31 -8 58 -13 l47 -8 0 368 0 368 -37 6 c-21 3 -46 8 -55 10 -16 3 -18 -22 -20 -362z"
       id="path16" />
    <path
       d="M7175 10603 c-11 -2 -30 -6 -42 -9 l-23 -4 0 -366 0 -366 48 7 c26 4 50 9 55 12 14 8 9 733 -5 732 -7 -1 -22 -3 -33 -6z"
       id="path17" />
    <path
       d="M4906 10572 c-3 -3 -6 -169 -6 -368 l0 -364 23 -4 c12 -3 39 -8 60 -11 l37 -6 0 371 c0 288 -3 371 -12 374 -26 8 -97 14 -102 8z"
       id="path18" />
    <path
       d="M6940 10571 l-35 -6 -3 -367 -2 -368 29 0 c16 0 43 3 60 6 l31 7 0 368 0 369 -22 -1 c-13 -1 -39 -4 -58 -8z"
       id="path19" />
    <path
       d="M6753 10552 l-53 -3 0 -374 0 -374 53 6 c28 3 53 7 55 8 1 1 1 168 0 371 l-3 369 -52 -3z"
       id="path20" />
    <path
       d="M5110 10181 l0 -369 23 -6 c12 -3 37 -6 55 -6 l32 0 0 375 0 375 -55 0 -55 0 0 -369z"
       id="path21" />
    <path
       d="M5350 10472 l0 -69 143 -6 c174 -8 845 -7 982 2 l100 6 3 68 3 68 -73 -8 c-93 -10 -1024 -9 -1100 1 l-58 7 0 -69z"
       id="path22" />
    <path
       d="M4110 10442 c0 -17 21 -134 25 -139 4 -7 402 -103 423 -103 22 0 23 3 20 72 l-3 72 -225 57 c-262 68 -240 64 -240 41z"
       id="path23" />
    <path
       d="M7518 10391 l-178 -45 0 -73 c0 -56 3 -73 14 -73 17 0 211 45 282 66 l51 14 9 76 c6 41 7 76 4 77 -3 2 -85 -18 -182 -42z"
       id="path24" />
    <path
       d="M5875 10259 c-99 -88 -52 -246 77 -257 123 -10 200 108 143 219 -39 74 -155 94 -220 38z"
       id="path25" />
    <path
       d="M5399 10221 c-41 -41 -40 -91 1 -133 57 -56 150 -13 150 68 0 47 -45 94 -90 94 -22 0 -41 -9 -61 -29z"
       id="path26" />
    <path
       d="M6409 10222 c-26 -23 -33 -37 -33 -65 0 -94 127 -128 169 -46 49 95 -57 182 -136 111z"
       id="path27" />
    <path
       d="M5643 10218 c-32 -16 -48 -61 -34 -97 34 -80 151 -58 151 29 0 62 -58 96 -117 68z"
       id="path28" />
    <path
       d="M6195 10205 c-65 -64 6 -162 88 -124 75 34 49 149 -33 149 -19 0 -40 -9 -55 -25z"
       id="path29" />
    <path
       d="M4160 10151 c0 -29 21 -136 29 -143 13 -15 375 -108 383 -100 5 5 8 40 6 78 l-3 69 -155 41 c-85 23 -179 48 -207 57 -50 15 -53 15 -53 -2z"
       id="path30" />
    <path
       d="M7488 10097 l-148 -41 0 -77 0 -77 93 25 c223 61 206 49 222 162 8 61 22 61 -167 8z"
       id="path31" />
    <path
       d="M5350 9852 l0 -70 167 -7 c180 -8 977 0 1031 11 l32 6 0 65 0 65 -157 -9 c-190 -9 -803 -9 -960 1 l-113 8 0 -70z"
       id="path32" />
    <path
       d="M4215 9828 c2 -7 9 -39 15 -70 l11 -57 62 -20 c447 -146 1030 -211 1777 -198 594 10 1017 60 1375 163 142 41 142 41 151 123 7 60 6 64 -12 57 -360 -139 -924 -210 -1659 -210 -698 0 -1118 49 -1566 184 -145 44 -160 46 -154 28z"
       id="path33" />
    <path
       d="M4260 9600 c0 -18 86 -413 132 -611 27 -118 35 -140 53 -144 42 -10 305 -31 305 -25 0 17 -316 580 -371 660 -44 65 -119 141 -119 120z"
       id="path34" />
    <path
       d="M7526 9537 c-88 -139 -391 -676 -384 -682 3 -3 267 31 309 40 21 5 28 13 32 43 3 20 24 168 46 327 23 160 44 300 46 313 9 38 -8 24 -49 -41z"
       id="path35" />
    <path
       d="M4520 9489 c0 -6 33 -71 73 -143 41 -72 107 -191 147 -265 40 -73 75 -129 79 -124 48 71 282 445 280 447 -2 1 -51 8 -109 15 -98 11 -413 65 -452 77 -10 3 -18 0 -18 -7z"
       id="path36" />
    <path
       d="M7245 9479 c-44 -10 -161 -30 -260 -44 -99 -14 -180 -27 -182 -28 -3 -4 271 -426 277 -426 3 -1 41 65 84 147 44 81 89 163 101 182 12 19 41 70 64 113 49 90 53 88 -84 56z"
       id="path37" />
    <path
       d="M6609 9396 c-2 -2 -123 -9 -269 -16 -146 -7 -267 -14 -269 -16 -4 -4 233 -380 264 -420 l20 -25 95 157 c127 212 180 304 180 315 0 9 -13 12 -21 5z"
       id="path38" />
    <path
       d="M5270 9385 c0 -3 39 -70 86 -148 48 -78 112 -184 142 -234 31 -51 58 -93 61 -93 4 0 70 102 148 228 l142 227 -177 7 c-97 3 -228 9 -289 12 -62 4 -113 4 -113 1z"
       id="path39" />
    <path
       d="M5792 9052 c-89 -142 -162 -261 -162 -265 0 -9 481 -9 583 -1 l77 7 -22 36 c-57 94 -292 457 -302 469 -10 10 -45 -39 -174 -246z"
       id="path40" />
    <path
       d="M6692 9263 c-77 -124 -272 -453 -272 -459 0 -13 593 25 607 40 4 4 -295 466 -302 466 -2 0 -16 -21 -33 -47z"
       id="path41" />
    <path
       d="M5065 9128 c-60 -94 -131 -203 -156 -242 -44 -68 -45 -71 -25 -78 52 -17 606 -35 606 -20 0 5 -62 112 -138 238 -164 272 -165 274 -172 274 -3 0 -54 -77 -115 -172z"
       id="path42" />
    <path
       d="M4185 8920 c22 -312 156 -1722 200 -2090 13 -113 34 -288 45 -390 172 -1497 545 -2748 1098 -3675 450 -756 1061 -1342 1842 -1770 58 -32 120 -67 139 -78 69 -42 19 3 -96 84 -601 427 -1089 929 -1346 1384 -192 340 -421 1069 -651 2070 -290 1265 -429 1793 -841 3185 -47 157 -155 528 -240 825 -145 504 -155 534 -150 455z m513 -2355 c82 -242 170 -506 196 -587 l46 -147 -71 -173 -71 -173 156 -152 156 -153 28 -120 29 -120 -68 -147 c-38 -82 -68 -153 -69 -160 0 -7 62 -68 138 -137 l138 -124 29 -126 28 -126 -31 -82 c-17 -46 -40 -110 -52 -143 l-22 -60 119 -115 119 -115 48 -170 c63 -223 183 -582 240 -719 24 -60 41 -105 37 -100 -27 30 -259 399 -282 449 -15 33 -54 146 -88 250 l-61 190 -118 108 c-113 104 -120 112 -140 175 l-21 67 54 170 c30 94 55 177 55 186 0 17 -78 94 -238 234 -136 120 -147 169 -74 336 27 63 64 147 81 188 l30 74 -169 166 -170 166 -16 95 -16 95 66 167 65 168 -113 302 -114 303 -6 235 c-4 129 -9 249 -12 265 -11 65 19 -14 164 -440z m327 -1048 c15 -59 26 -110 23 -112 -3 -3 -30 19 -62 47 l-57 53 27 68 c15 37 31 64 34 60 4 -5 19 -57 35 -116z m210 -856 c13 -50 20 -91 16 -91 -3 0 -26 18 -50 39 l-45 38 25 56 c13 30 26 54 27 52 2 -2 14 -44 27 -94z m193 -798 c11 -40 17 -73 13 -73 -16 0 -71 67 -67 81 31 86 27 87 54 -8z"
       id="path43" />
    <path
       d="M7370 8724 c-699 -123 -1890 -148 -2749 -59 -79 8 -146 13 -148 11 -2 -2 17 -82 43 -177 25 -96 51 -194 58 -219 l11 -45 145 -12 c136 -11 412 -25 790 -41 l165 -7 23 -179 c12 -98 20 -181 17 -184 -8 -8 -574 15 -815 33 -111 9 -205 14 -207 11 -3 -3 23 -108 58 -234 l62 -229 81 -7 c484 -38 1993 6 2408 70 36 5 37 7 42 57 6 58 23 401 21 405 -1 1 -78 -7 -171 -18 -164 -19 -545 -52 -751 -66 -83 -5 -103 -4 -103 7 0 8 -5 88 -11 178 -12 190 -17 181 86 181 161 0 961 73 976 88 4 4 14 83 24 176 9 92 20 190 24 217 10 60 13 59 -79 43z"
       id="path44" />
    <path
       d="M6517 7254 c-159 -29 -268 -75 -379 -161 -60 -47 -91 -82 -208 -232 -40 -52 -85 -105 -99 -118 -161 -148 -428 -53 -345 123 21 43 124 155 198 214 73 59 72 67 -16 75 -40 3 -185 20 -323 36 l-250 30 -28 -33 c-72 -86 -114 -222 -104 -335 36 -386 324 -616 772 -617 330 0 450 73 732 447 99 132 248 182 353 120 102 -60 69 -164 -106 -344 -154 -157 -154 -158 41 -154 66 1 193 3 281 4 l162 1 42 65 c118 182 150 422 80 608 -55 147 -194 244 -396 277 -85 14 -316 11 -407 -6z"
       id="path45" />
    <path
       d="M7235 6184 c-590 -88 -1439 -125 -1963 -86 -52 4 -95 5 -97 2 -2 -3 22 -107 54 -230 l58 -225 179 -6 c219 -8 789 6 1094 26 324 22 817 69 827 79 2 2 -1 66 -6 142 -6 77 -11 178 -11 227 0 101 14 93 -135 71z"
       id="path46" />
    <path
       d="M5335 5468 c3 -13 41 -171 84 -353 44 -181 99 -414 123 -517 l43 -188 263 0 c243 0 262 1 262 18 0 9 -18 83 -39 164 l-39 146 126 7 c508 26 1294 106 1325 135 7 6 -39 429 -48 438 -2 2 -48 -3 -102 -12 -280 -44 -676 -85 -1020 -106 -166 -10 -393 -14 -393 -7 0 2 -13 68 -30 145 -16 78 -30 144 -30 147 0 3 -119 5 -265 5 l-265 0 5 -22z"
       id="path47" />
    <path
       d="M7350 4644 c-468 -176 -1260 -421 -1612 -498 -44 -10 -78 -23 -78 -29 0 -7 29 -122 63 -257 l63 -245 100 -17 c276 -46 672 -91 964 -109 326 -20 940 1 940 33 0 15 -80 332 -89 354 -9 19 -14 21 -53 14 -63 -12 -268 -33 -273 -29 -2 2 -18 67 -35 144 -17 77 -33 147 -36 156 -4 13 24 26 141 64 80 27 145 52 145 57 0 5 -13 80 -29 166 -16 86 -32 178 -36 205 -3 26 -11 47 -18 46 -7 0 -77 -25 -157 -55z m-436 -656 c9 -40 19 -88 23 -107 l6 -34 -156 6 c-144 7 -478 35 -484 41 -2 2 52 17 119 35 68 17 197 54 288 80 91 27 170 49 176 50 7 0 19 -31 28 -71z"
       id="path48" />
    <path
       d="M7595 3278 c-104 -79 -240 -180 -301 -225 l-112 -81 -50 63 c-254 317 -889 309 -1040 -13 -90 -192 44 -532 372 -941 l51 -63 315 5 c325 6 425 15 718 63 211 35 594 133 620 158 2 3 -22 74 -55 158 -34 84 -69 177 -79 206 -14 39 -23 51 -34 46 -39 -15 -349 -86 -473 -107 l-138 -25 -10 26 c-12 31 -41 7 256 206 138 93 257 176 266 185 15 15 12 32 -42 221 -32 113 -62 218 -66 233 l-8 29 -190 -144z m-769 -476 c45 -23 85 -64 106 -107 24 -49 81 -215 76 -220 -3 -3 -86 -8 -186 -12 l-182 -6 -35 78 c-61 133 -68 195 -28 244 43 52 169 64 249 23z"
       id="path49" />
    <path
       d="M8092 2049 c-366 -115 -800 -181 -1204 -183 -126 -1 -228 -2 -228 -3 0 -8 249 -242 355 -332 511 -440 1071 -783 1680 -1031 165 -67 494 -182 511 -178 8 2 -28 57 -86 134 -339 450 -698 1107 -865 1582 -11 28 -24 52 -29 51 -6 -1 -66 -19 -134 -40z m97 -297 c150 -356 349 -726 553 -1029 27 -40 46 -73 43 -73 -3 0 -78 34 -168 76 -476 221 -1025 574 -1397 897 l-94 82 154 12 c262 21 603 84 815 152 17 5 32 10 35 10 3 1 29 -56 59 -127z"
       id="path50" />
    <path
       d="M7910 1664 c-74 -18 -180 -40 -235 -49 -140 -23 -147 -24 -139 -36 32 -52 741 -524 846 -564 12 -5 0 24 -38 91 -69 121 -222 425 -259 514 -15 36 -30 68 -33 71 -4 3 -68 -9 -142 -27z m92 -171 c15 -42 26 -78 24 -80 -3 -3 -48 16 -181 77 l-70 33 95 22 c52 13 97 23 100 24 3 0 17 -34 32 -76z"
       id="path51" />
  </g>
</svg>
